<svg preserveAspectRatio="none" overflow="visible" style="display:block" width="11.6667" height="11.6667" viewBox="0 0 11.6667 11.6667" fill="none" xmlns="http://www.w3.org/2000/svg"><path d="M2.33333 11.6667V9.1875C1.95417 9.02222 1.62118 8.80104 1.33438 8.52396C1.04757 8.24688 .804514 7.93333 .605208 7.58333C.405903 7.23333 .255208 6.85903 .153125 6.46042C.0510417 6.06181 0 5.65833 0 5.25C0 3.71389 .544444 2.45486 1.63333 1.47292C2.72222 .490972 4.12222 0 5.83333 0C7.54444 0 8.94444 .490972 10.0333 1.47292C11.1222 2.45486 11.6667 3.71389 11.6667 5.25C11.6667 5.65833 11.6156 6.06181 11.5135 6.46042C11.4115 6.85903 11.2608 7.23333 11.0615 7.58333C10.8622 7.93333 10.6191 8.24688 10.3323 8.52396C10.0455 8.80104 9.7125 9.02222 9.33333 9.1875V11.6667H2.33333ZM3.5 10.5H4.08333V9.33333H5.25V10.5H6.41667V9.33333H7.58333V10.5H8.16667V8.42917C8.53611 8.34167 8.86424 8.19583 9.15104 7.99167C9.43785 7.7875 9.6809 7.54444 9.88021 7.2625C10.0795 6.98056 10.2326 6.66944 10.3396 6.32917C10.4465 5.98889 10.5 5.62917 10.5 5.25C10.5 4.03472 10.0698 3.05035 9.20938 2.29688C8.34896 1.5434 7.22361 1.16667 5.83333 1.16667C4.44306 1.16667 3.31771 1.5434 2.45729 2.29688C1.59688 3.05035 1.16667 4.03472 1.16667 5.25C1.16667 5.62917 1.22014 5.98889 1.32708 6.32917C1.43403 6.66944 1.58715 6.98056 1.78646 7.2625C1.98576 7.54444 2.23125 7.7875 2.52292 7.99167C2.81458 8.19583 3.14028 8.34167 3.5 8.42917V10.5ZM4.95833 7.58333H6.70833L5.83333 5.83333L4.95833 7.58333ZM3.79167 6.41667C4.43611 6.41667 4.95833 5.89444 4.95833 5.25C4.95833 4.60556 4.43611 4.08333 3.79167 4.08333C3.14722 4.08333 2.625 4.60556 2.625 5.25C2.625 5.89444 3.14722 6.41667 3.79167 6.41667ZM7.875 6.41667C8.51944 6.41667 9.04167 5.89444 9.04167 5.25C9.04167 4.60556 8.51944 4.08333 7.875 4.08333C7.23056 4.08333 6.70833 4.60556 6.70833 5.25C6.70833 5.89444 7.23056 6.41667 7.875 6.41667Z" fill="#000"/></svg>
