<svg preserveAspectRatio="none" overflow="visible" style="display: block;" width="13.3333" height="13.3333" viewBox="0 0 13.3333 13.3333" fill="none" xmlns="http://www.w3.org/2000/svg">
<path id="Vector" d="M5.53333 11.8667C6.03333 10.8556 6.7 10.1806 7.53333 9.84167C8.36667 9.50278 9.07778 9.33333 9.66667 9.33333C9.92222 9.33333 10.1722 9.35555 10.4167 9.4C10.6611 9.44444 10.9 9.5 11.1333 9.56667C11.4 9.14444 11.6111 8.68889 11.7667 8.2C11.9222 7.71111 12 7.2 12 6.66667C12 5.17778 11.4833 3.91667 10.45 2.88333C9.41667 1.85 8.15556 1.33333 6.66667 1.33333C5.17778 1.33333 3.91667 1.85 2.88333 2.88333C1.85 3.91667 1.33333 5.17778 1.33333 6.66667C1.33333 7.16667 1.39722 7.64444 1.525 8.1C1.65278 8.55556 1.84444 8.97778 2.1 9.36667C2.55556 9.14444 3.02778 8.97222 3.51667 8.85C4.00556 8.72778 4.5 8.66667 5 8.66667C5.35556 8.66667 5.69722 8.69722 6.025 8.75833C6.35278 8.81944 6.67778 8.9 7 9C6.74444 9.13333 6.50278 9.28889 6.275 9.46667C6.04722 9.64444 5.83333 9.83333 5.63333 10.0333C5.5 10.0111 5.38611 10 5.29167 10H5C4.64444 10 4.29167 10.0389 3.94167 10.1167C3.59167 10.1944 3.25556 10.3111 2.93333 10.4667C3.28889 10.8222 3.68611 11.1194 4.125 11.3583C4.56389 11.5972 5.03333 11.7667 5.53333 11.8667ZM4.06667 12.8083C3.25556 12.4583 2.55 11.9833 1.95 11.3833C1.35 10.7833 0.875 10.0778 0.525 9.26667C0.175 8.45556 0 7.58889 0 6.66667C0 5.74444 0.175 4.87778 0.525 4.06667C0.875 3.25556 1.35 2.55 1.95 1.95C2.55 1.35 3.25556 0.875 4.06667 0.525C4.87778 0.175 5.74444 0 6.66667 0C7.58889 0 8.45556 0.175 9.26667 0.525C10.0778 0.875 10.7833 1.35 11.3833 1.95C11.9833 2.55 12.4583 3.25556 12.8083 4.06667C13.1583 4.87778 13.3333 5.74444 13.3333 6.66667C13.3333 7.58889 13.1583 8.45556 12.8083 9.26667C12.4583 10.0778 11.9833 10.7833 11.3833 11.3833C10.7833 11.9833 10.0778 12.4583 9.26667 12.8083C8.45556 13.1583 7.58889 13.3333 6.66667 13.3333C5.74444 13.3333 4.87778 13.1583 4.06667 12.8083ZM3.35 6.98333C2.89444 6.52778 2.66667 5.97778 2.66667 5.33333C2.66667 4.68889 2.89444 4.13889 3.35 3.68333C3.80556 3.22778 4.35556 3 5 3C5.64444 3 6.19444 3.22778 6.65 3.68333C7.10556 4.13889 7.33333 4.68889 7.33333 5.33333C7.33333 5.97778 7.10556 6.52778 6.65 6.98333C6.19444 7.43889 5.64444 7.66667 5 7.66667C4.35556 7.66667 3.80556 7.43889 3.35 6.98333ZM5.70833 6.04167C5.90278 5.84722 6 5.61111 6 5.33333C6 5.05556 5.90278 4.81944 5.70833 4.625C5.51389 4.43056 5.27778 4.33333 5 4.33333C4.72222 4.33333 4.48611 4.43056 4.29167 4.625C4.09722 4.81944 4 5.05556 4 5.33333C4 5.61111 4.09722 5.84722 4.29167 6.04167C4.48611 6.23611 4.72222 6.33333 5 6.33333C5.27778 6.33333 5.51389 6.23611 5.70833 6.04167ZM8.48333 7.85C8.16111 7.52778 8 7.13333 8 6.66667C8 6.2 8.16111 5.80556 8.48333 5.48333C8.80556 5.16111 9.2 5 9.66667 5C10.1333 5 10.5278 5.16111 10.85 5.48333C11.1722 5.80556 11.3333 6.2 11.3333 6.66667C11.3333 7.13333 11.1722 7.52778 10.85 7.85C10.5278 8.17222 10.1333 8.33333 9.66667 8.33333C9.2 8.33333 8.80556 8.17222 8.48333 7.85Z" fill="#C9C9C9"/>
</svg>
