<svg xmlns="http://www.w3.org/2000/svg" viewBox="0 0 1024 1024">
<g transform="translate(0.000000,1024.000000) scale(0.100000,-0.100000)"
fill="currentColor" stroke="none">
<path d="M3295 9773 c-176 -63 -255 -256 -172 -420 15 -28 175 -233 357 -455
181 -222 330 -408 330 -415 0 -6 -25 -17 -56 -24 l-57 -13 -26 30 c-14 16
-241 288 -503 605 -262 317 -497 594 -523 617 -116 102 -300 97 -408 -12 -124
-124 -116 -297 20 -461 148 -179 828 -1002 835 -1012 6 -8 1 -17 -16 -29 l-26
-16 -115 108 c-320 301 -480 442 -770 679 -93 76 -249 208 -345 293 -237 209
-248 216 -330 215 -107 -2 -244 -61 -294 -126 -75 -98 -90 -222 -40 -325 33
-68 31 -65 889 -906 623 -610 663 -651 652 -662 -7 -7 40 -40 -747 516 -360
254 -675 472 -700 483 -31 14 -68 20 -120 21 -266 3 -400 -307 -219 -506 36
-39 2584 -1842 2620 -1853 29 -9 20 -24 -47 -78 -136 -111 -296 -175 -529
-212 -390 -62 -570 -151 -662 -327 -43 -82 -41 -207 5 -300 59 -119 168 -186
287 -173 132 13 751 17 826 4 41 -7 140 -14 221 -16 139 -4 154 -3 269 27 67
17 124 29 126 26 3 -3 -13 -49 -35 -103 -104 -254 -130 -399 -97 -535 34 -141
55 -204 90 -263 130 -224 159 -324 204 -711 11 -94 25 -183 30 -197 9 -23 5
-33 -31 -79 -342 -437 -1320 -1361 -1729 -1633 -211 -139 -304 -310 -259 -471
24 -84 147 -150 504 -270 820 -277 1165 -344 1763 -344 295 0 448 12 477 38
33 30 188 211 346 407 521 642 664 815 1042 1257 l228 266 102 52 c158 81 331
175 460 251 64 38 119 69 122 69 2 0 29 -37 59 -83 115 -172 237 -300 687
-723 259 -243 294 -274 307 -274 14 0 294 288 383 395 388 462 665 917 833
1365 42 112 117 357 117 382 0 11 -113 93 -322 235 -178 120 -420 283 -538
363 -132 89 -214 151 -213 160 1 8 11 42 23 74 20 55 21 72 16 235 -6 196 -24
287 -74 388 -31 61 -118 183 -131 183 -4 0 -77 70 -162 156 -456 461 -1293
1102 -1599 1224 -108 43 -577 36 -768 -11 -46 -11 -86 -19 -88 -16 -3 3 -18
69 -35 148 -55 268 -122 418 -243 547 -34 37 -103 121 -153 187 -191 253 -532
617 -658 702 -79 54 -58 29 -570 658 -246 303 -469 572 -494 598 -89 93 -218
128 -326 90z m3082 -3497 c119 -16 149 -32 428 -231 532 -380 1060 -848 1094
-972 24 -82 35 -230 24 -303 -17 -105 -63 -195 -383 -735 -62 -104 -142 -245
-177 -313 -55 -104 -75 -131 -129 -179 -179 -158 -367 -275 -859 -534 -126
-66 -151 -84 -244 -174 -151 -146 -628 -707 -1176 -1385 -239 -295 -438 -535
-453 -544 -23 -14 -681 65 -916 110 -220 42 -576 141 -576 159 0 2 69 60 153
128 613 503 1539 1451 1635 1675 45 105 52 287 17 452 -9 41 -25 143 -36 225
-45 339 -110 543 -244 771 -25 41 -45 85 -45 96 0 45 108 316 195 489 29 56
40 69 53 64 110 -43 279 -40 378 7 104 48 243 206 521 593 148 206 333 521
333 569 0 22 99 39 255 44 28 1 96 -5 152 -12z"/>
</g>
</svg>
