<svg xmlns="http://www.w3.org/2000/svg" viewBox="0 0 1024 1024">
<g transform="translate(0.000000,1024.000000) scale(0.100000,-0.100000)"
fill="currentColor" stroke="none">
<path d="M5362 9029 c-147 -29 -260 -164 -270 -323 -2 -39 8 -325 22 -636 65
-1416 76 -1684 70 -1702 -3 -11 -139 -271 -301 -577 -163 -306 -308 -582 -323
-614 -24 -50 -35 -62 -81 -84 -40 -21 -158 -130 -513 -479 -254 -249 -469
-462 -479 -474 l-18 -22 -407 6 c-1253 19 -2310 27 -2355 16 -329 -73 -377
-506 -71 -641 70 -32 183 -36 1079 -44 429 -4 1072 -10 1429 -14 l648 -8 63
-64 c34 -35 456 -481 938 -991 482 -509 898 -944 924 -967 26 -22 72 -60 102
-85 79 -66 146 -89 247 -84 94 5 52 -15 1286 597 367 182 671 331 675 331 5 0
139 -125 298 -277 160 -152 388 -370 508 -485 265 -254 295 -273 432 -273 139
0 242 62 306 187 54 104 32 303 -46 410 -68 93 -1329 1310 -1397 1347 -111 62
-255 55 -360 -17 -42 -29 -692 -342 -709 -342 -15 0 -19 -9 317 638 179 345
351 676 383 736 l56 108 796 -7 c870 -8 857 -8 948 49 63 40 200 193 229 254
70 148 8 345 -132 427 -69 40 -148 53 -391 65 -126 6 -506 24 -843 40 -732 36
-778 36 -852 9 -30 -11 -83 -28 -116 -38 -82 -24 -144 -61 -191 -115 -21 -24
-173 -289 -338 -587 -480 -871 -533 -964 -544 -964 -8 0 -763 844 -1218 1362
l-54 61 302 569 c524 987 494 918 470 1081 -6 42 -20 280 -31 527 -62 1403
-81 1794 -90 1833 -32 137 -136 236 -274 261 -66 12 -64 12 -124 0z"/>
<path d="M3305 6794 c-673 -150 -901 -981 -398 -1454 535 -505 1422 -122 1426
615 3 386 -245 718 -615 826 -99 28 -313 35 -413 13z"/>
</g>
</svg>
