<svg xmlns="http://www.w3.org/2000/svg" viewBox="0 0 1024 1024">
<g transform="translate(0.000000,1024.000000) scale(0.100000,-0.100000)"
fill="currentColor" stroke="none">
<path d="M5273 9768 c-6 -7 -46 -87 -90 -178 -44 -91 -111 -219 -150 -285 -39
-66 -78 -141 -86 -166 -27 -78 -68 -138 -97 -139 -38 0 -259 28 -270 35 -19
12 -267 5 -332 -9 -161 -35 -323 -132 -490 -294 -164 -160 -211 -268 -211
-489 l1 -112 -42 -16 c-109 -44 -270 -181 -360 -308 -155 -217 -213 -462 -183
-762 l8 -80 -113 -57 c-215 -108 -328 -259 -504 -670 -185 -431 -541 -1009
-865 -1403 -70 -86 -96 -181 -79 -293 40 -276 186 -402 503 -430 101 -10 122
-7 249 26 148 40 215 92 313 242 34 52 140 208 237 345 312 446 428 625 663
1025 172 292 264 430 313 464 20 14 61 46 90 70 113 92 285 166 638 276 l228
70 195 -66 c213 -72 234 -81 226 -94 -10 -17 -224 -81 -470 -140 -577 -140
-598 -150 -732 -330 -51 -69 -98 -141 -104 -160 -19 -60 -171 -348 -274 -520
-195 -324 -379 -581 -625 -875 -175 -209 -212 -276 -218 -400 -6 -110 23 -178
112 -263 170 -163 388 -255 601 -254 340 2 639 204 994 671 64 84 64 84 82 63
22 -28 71 -156 95 -250 l19 -73 -377 -375 -376 -376 -53 7 c-182 23 -311 58
-577 156 -90 33 -290 32 -364 -3 -126 -59 -185 -152 -201 -319 -36 -364 154
-636 550 -785 37 -14 106 -48 153 -74 136 -78 278 -117 560 -155 69 -9 134
-20 145 -24 19 -8 73 -116 62 -127 -5 -5 -383 51 -617 91 -157 28 -343 74
-430 108 -104 40 -175 15 -220 -78 -72 -148 72 -458 266 -571 77 -45 346 -121
529 -149 55 -8 163 -28 240 -44 78 -16 217 -39 310 -51 94 -12 184 -23 201
-26 28 -4 36 -13 68 -80 20 -41 36 -78 36 -81 0 -8 -192 5 -330 23 -212 27
-407 68 -574 120 -52 16 -90 22 -111 18 -142 -26 -169 -191 -52 -313 49 -51
223 -183 278 -212 57 -28 370 -81 954 -158 l301 -40 94 20 c117 24 238 57 398
108 103 33 131 46 180 87 258 217 1198 1218 1492 1588 30 38 76 90 103 115 27
25 60 67 73 93 44 87 194 730 284 1213 17 94 33 177 36 185 2 8 25 28 51 45
246 154 479 447 567 710 22 64 56 221 56 255 0 4 19 12 43 18 193 49 515 436
617 740 66 198 80 475 32 647 -57 207 -78 260 -149 378 -41 69 -47 58 103 195
108 97 273 271 288 302 16 34 -184 411 -350 661 -272 410 -410 563 -748 832
-319 254 -1045 757 -1093 757 -5 0 -42 -57 -83 -127 -161 -279 -265 -428 -387
-556 l-75 -79 -131 47 c-73 26 -135 50 -139 54 -3 3 23 42 59 86 132 164 471
694 458 716 -24 37 -536 200 -735 233 -220 36 -665 51 -687 24z m-568 -1247
c1712 -217 2850 -856 3582 -2011 215 -339 247 -585 114 -855 -43 -86 -165
-249 -183 -243 -6 2 -36 62 -67 133 -405 924 -1015 1581 -1876 2020 -562 286
-1268 472 -2043 538 -166 14 -163 13 -184 80 -10 32 -9 43 4 65 9 15 23 53 32
84 19 66 81 123 201 184 83 42 125 42 420 5z m-765 -891 c1158 -64 2024 -349
2732 -900 120 -94 431 -407 530 -535 201 -260 376 -561 508 -870 l43 -100 4
-175 c3 -138 1 -191 -12 -245 -17 -75 -52 -161 -61 -152 -3 3 -28 59 -54 125
-506 1259 -1685 2094 -3529 2502 -316 69 -374 67 -466 -23 -37 -36 -68 -55
-117 -72 l-66 -23 -6 21 c-26 99 68 325 174 421 47 42 38 41 320 26z"/>
<path d="M1477 4019 c-89 -21 -172 -110 -204 -218 -54 -186 43 -557 187 -714
64 -70 320 -242 460 -309 58 -28 132 -64 164 -79 86 -42 162 -34 224 24 153
143 77 647 -144 955 -35 50 -253 182 -409 249 -44 19 -100 47 -125 62 -52 33
-100 43 -153 30z"/>
<path d="M1575 2626 c-108 -48 -138 -291 -52 -419 19 -29 44 -68 55 -88 83
-140 584 -383 792 -384 153 0 186 46 177 249 -9 225 -28 260 -177 314 -135 49
-546 237 -614 281 -97 63 -127 71 -181 47z"/>
<path d="M1935 1700 c-75 -49 -82 -121 -22 -235 51 -97 72 -112 220 -161 62
-20 180 -64 262 -96 258 -103 346 -88 376 65 16 81 13 133 -10 169 -27 44 -41
52 -162 87 -146 43 -413 134 -484 165 -73 31 -138 34 -180 6z"/>
</g>
</svg>
